<?xml version="1.0" standalone="no"?>
<!DOCTYPE svg PUBLIC "-//W3C//DTD SVG 20010904//EN"
 "http://www.w3.org/TR/2001/REC-SVG-20010904/DTD/svg10.dtd">
<svg version="1.0" xmlns="http://www.w3.org/2000/svg"
 width="270.000000pt" height="270.000000pt" viewBox="0 0 270.000000 270.000000"
 preserveAspectRatio="xMidYMid meet">
<metadata>
Created by potrace 1.11, written by Peter Selinger 2001-2013
</metadata>
<g transform="translate(0.000000,270.000000) scale(0.100000,-0.100000)"
fill="#000000" stroke="none">
<path d="M0 1350 l0 -1350 1350 0 1350 0 0 1350 0 1350 -1350 0 -1350 0 0
-1350z m1605 795 c86 -18 214 -80 276 -135 26 -22 63 -64 82 -93 40 -59 91
-180 85 -198 -5 -14 -285 -82 -299 -73 -5 3 -9 12 -9 20 0 28 -48 109 -87 146
-62 60 -123 82 -228 83 -77 0 -98 -4 -147 -27 -105 -49 -167 -131 -205 -268
-25 -92 -25 -377 0 -470 37 -138 92 -212 195 -262 60 -30 75 -33 152 -33 64 1
96 6 130 21 93 43 152 114 191 231 12 38 26 63 33 60 6 -2 70 -21 141 -42 72
-21 133 -41 138 -45 10 -8 -24 -106 -65 -183 -48 -92 -158 -198 -250 -242
-187 -89 -439 -87 -628 6 -169 84 -296 247 -352 454 -28 107 -31 389 -5 504
53 229 176 396 359 485 51 25 125 52 163 60 92 19 242 19 330 1z"/>
</g>
</svg>
